<svg xmlns="http://www.w3.org/2000/svg" xmlns:xlink="http://www.w3.org/1999/xlink" width="24" height="24" viewBox="0 0 24 24"><defs><style>.a{fill:#fd0;}.b{clip-path:url(#a);}</style><clipPath id="a"><rect class="a" width="24" height="24" transform="translate(-2432 8003)"/></clipPath></defs><g class="b" transform="translate(2432 -8003)"><g transform="translate(-2429.37 8009.477) rotate(-22)"><path class="a" d="M11.8,55.792h-.026a.941.941,0,0,0-.915.965v.752a.272.272,0,0,1-.543,0V56.12a.9.9,0,1,0-1.785,0v1.473a.272.272,0,1,1-.543,0V55.716a.939.939,0,0,0-.907-.971H7.053a.909.909,0,0,0-.889.931v2.114a.272.272,0,1,1-.543,0V55.736c0-.007,0-.014,0-.02s0-.033,0-.05v-4.8a.951.951,0,0,0-.906-.984.951.951,0,0,0-.907.984L3.8,58.824A.272.272,0,0,1,3.32,59L2.37,57.84a1.446,1.446,0,0,0-1.021-.54,1.415,1.415,0,0,0-1.063.382l-.01.01-.186.155,3.294,6.33A2.922,2.922,0,0,0,5.949,65.8H9.757A3.071,3.071,0,0,0,12.7,62.63c0-.925,0-1.618,0-2.177,0-1.494,0-2.043,0-3.689a.938.938,0,0,0-.9-.972Zm0,0" transform="translate(0 -47.948)"/><path class="a" d="M48.865,3.015a.272.272,0,0,0,.272-.272,2.19,2.19,0,1,1,4.379,0,.272.272,0,0,0,.543,0,2.733,2.733,0,1,0-5.466,0A.272.272,0,0,0,48.865,3.015Zm0,0" transform="translate(-46.622 0)"/></g></g></svg>