<?xml version="1.0" encoding="utf-8"?>
<!-- Generator: Adobe Illustrator 24.1.1, SVG Export Plug-In . SVG Version: 6.00 Build 0)  -->
<svg version="1.1" id="Layer_1" xmlns="http://www.w3.org/2000/svg" xmlns:xlink="http://www.w3.org/1999/xlink" x="0px" y="0px"
	 viewBox="0 0 500 500" style="enable-background:new 0 0 500 500;" xml:space="preserve">
<style type="text/css">
	.st0{fill:#508FF4;}
</style>
<g>
	<path id="search" class="st0" d="M326.2,357.8c-86.1,69.5-212.2,56.1-281.7-30C-25,241.6-11.6,115.5,74.5,46
		C160.6-23.5,286.7-10,356.2,76c59.2,73.4,59.3,178.1,0.1,251.6L500,468.3l-30.1,30.1L326.2,357.8z M200.7,44.7
		c-86.9,0-157.4,70.5-157.4,157.4s70.5,157.4,157.4,157.4c86.9,0,157.4-70.5,157.4-157.4c0,0,0,0,0,0
		C357.9,115.2,287.6,44.8,200.7,44.7L200.7,44.7z"/>
</g>
</svg>
